<svg width="35" height="35" viewBox="0 0 35 35" fill="none" xmlns="http://www.w3.org/2000/svg">
<g clip-path="url(#clip0_428_282)">
<path d="M13.2141 34.1153C13.4118 34.315 13.6806 34.4277 13.9634 34.4277C14.2441 34.4277 14.5129 34.315 14.7107 34.1153L33.6876 15.1384C33.8872 14.9407 33.9999 14.6719 33.9999 14.3911C33.9999 14.1084 33.8872 13.8396 33.6876 13.6418L21.0289 0.983151C20.6157 0.577873 19.9514 0.581826 19.5422 0.995013L0.565301 19.9719L0.567278 19.9699C0.156068 20.3792 0.150136 21.0434 0.555416 21.4566L13.2141 34.1153ZM13.9515 31.8813L2.78933 20.7192L20.2798 3.22874L31.4419 14.3909L13.9515 31.8813Z" fill="black" fill-opacity="0.8"/>
<path d="M5.62053 14.9165C5.21723 15.3257 5.21723 15.9841 5.62053 16.3953L18.2772 29.0519H18.2752C18.4729 29.2496 18.7418 29.3623 19.0225 29.3623C19.3033 29.3623 19.5721 29.2496 19.7698 29.0519C19.9695 28.8523 20.0802 28.5834 20.0802 28.3046C20.0802 28.0239 19.9695 27.755 19.7698 27.5573L7.11318 14.9163H7.11516C6.91747 14.7167 6.6486 14.606 6.36785 14.606C6.08709 14.606 5.81827 14.7168 5.62053 14.9165Z" fill="black" fill-opacity="0.8"/>
<path d="M1.04385 32.3199C0.470531 32.3258 0.00592768 32.7904 6.26197e-06 33.3637C-0.00197109 33.9429 0.464595 34.4154 1.04385 34.4214H5.77673H5.77476C6.05746 34.4233 6.32631 34.3107 6.52602 34.113C6.72371 33.9133 6.83443 33.6444 6.83443 33.3637C6.8285 32.7825 6.356 32.3179 5.77475 32.3198L1.04385 32.3199Z" fill="black" fill-opacity="0.8"/>
<path d="M13.9637 32.3198C13.3845 32.3179 12.912 32.7824 12.906 33.3637C12.9041 33.6444 13.0148 33.9132 13.2144 34.113C13.4121 34.3107 13.683 34.4233 13.9637 34.4214H32.9406C33.2213 34.4233 33.4902 34.3107 33.6899 34.113C33.8876 33.9133 34.0003 33.6444 33.9983 33.3637C33.9924 32.7825 33.5199 32.3179 32.9407 32.3198H13.9637Z" fill="black" fill-opacity="0.8"/>
</g>
<defs>
<clipPath id="clip0_428_282">
<rect width="35" height="35" fill="white"/>
</clipPath>
</defs>
</svg>
