<svg width="30" height="29" viewBox="0 0 30 29" fill="none" xmlns="http://www.w3.org/2000/svg">
<path d="M0.948196 21.1386L7.94269 28.1331C8.24774 28.4382 8.66151 28.6097 9.09298 28.6098H28.6187V25.3558H17.298L29.0482 13.6056C30.3173 12.3381 30.3173 10.2718 29.0482 9.00439L20.9929 0.950715C20.3821 0.341875 19.5548 0 18.6923 0C17.8299 0 17.0026 0.341875 16.3917 0.950715L8.66345 8.67736L0.928672 16.557C0.329921 17.1704 -0.00362306 17.9946 2.96882e-05 18.8518C0.00368243 19.7089 0.344239 20.5303 0.948196 21.1386ZM18.6923 3.2513L26.746 11.305L22.5386 15.5124L14.4849 7.45874L18.6923 3.2513ZM10.9754 10.9666L12.1843 9.75932L20.238 17.813L12.8237 25.2273C12.7841 25.2681 12.7466 25.311 12.7114 25.3558H9.76656L3.25041 18.8364L10.9754 10.9666Z" fill="black"/>
</svg>
