<svg width="39" height="39" viewBox="0 0 39 39" fill="none" xmlns="http://www.w3.org/2000/svg">
<path d="M1.38748 27.1001L10.3437 36.0563C10.7343 36.4471 11.2642 36.6666 11.8166 36.6667H36.8187V32.5001H22.3229L37.3687 17.4542C38.9937 15.8313 38.9937 13.1855 37.3687 11.5626L27.0541 1.25008C26.272 0.470475 25.2127 0.0327148 24.1083 0.0327148C23.004 0.0327148 21.9447 0.470475 21.1625 1.25008L11.2666 11.1438L1.36248 21.2334C0.595794 22.0189 0.168701 23.0743 0.173378 24.1719C0.178055 25.2695 0.614128 26.3212 1.38748 27.1001ZM24.1083 4.19591L34.4208 14.5084L29.0333 19.8959L18.7208 9.58341L24.1083 4.19591ZM14.2271 14.0751L15.775 12.5292L26.0875 22.8417L16.5937 32.3355C16.543 32.3878 16.495 32.4427 16.45 32.5001H12.6791L4.33539 24.1522L14.2271 14.0751Z" fill="black"/>
</svg>
