<svg width="39" height="39" viewBox="0 0 39 39" fill="none" xmlns="http://www.w3.org/2000/svg">
<path d="M21 1.2501L11.1041 11.1459L1.24997 21.2293C0.473921 22.0099 0.0383301 23.066 0.0383301 24.1668C0.0383301 25.2675 0.473921 26.3236 1.24997 27.1043L10.2083 36.0626C10.5963 36.4475 11.1201 36.6645 11.6666 36.6668H36.6666V32.5001H22.0833L37.125 17.4584C37.5124 17.0715 37.8197 16.6119 38.0294 16.1061C38.2391 15.6003 38.347 15.0581 38.347 14.5105C38.347 13.963 38.2391 13.4208 38.0294 12.9149C37.8197 12.4091 37.5124 11.9496 37.125 11.5626L26.8958 1.2501C26.5088 0.862702 26.0493 0.555373 25.5435 0.345688C25.0376 0.136004 24.4954 0.0280762 23.9479 0.0280762C23.4003 0.0280762 22.8581 0.136004 22.3523 0.345688C21.8465 0.555373 21.3869 0.862702 21 1.2501ZM12.5208 32.5001L4.18747 24.1668L14.0833 14.0834L15.625 12.5209L25.9375 22.8334L16.4375 32.3334L16.2916 32.5001H12.5208Z" fill="black"/>
</svg>
