<svg width="30" height="29" viewBox="0 0 30 29" fill="none" xmlns="http://www.w3.org/2000/svg">
<path d="M16.4153 0.956985L8.66577 8.70654L0.948848 16.6029C0.341117 17.2143 0 18.0413 0 18.9033C0 19.7653 0.341117 20.5924 0.948848 21.2037L7.96423 28.2191C8.26811 28.5205 8.67827 28.6904 9.10627 28.6922H28.6841V25.4293H17.2637L29.043 13.6499C29.3464 13.3469 29.5871 12.987 29.7513 12.5909C29.9155 12.1948 30 11.7702 30 11.3414C30 10.9126 29.9155 10.488 29.7513 10.0919C29.5871 9.69574 29.3464 9.33588 29.043 9.03283L21.0324 0.956985C20.7294 0.653606 20.3695 0.412933 19.9734 0.248726C19.5773 0.0845196 19.1527 0 18.7239 0C18.2951 0 17.8705 0.0845196 17.4744 0.248726C17.0782 0.412933 16.7184 0.653606 16.4153 0.956985ZM9.77518 25.4293L3.24924 18.9033L10.9988 11.0069L12.2061 9.78332L20.2819 17.8592L12.8424 25.2987L12.7282 25.4293H9.77518Z" fill="black"/>
</svg>
